<?xml version="1.0" encoding="UTF-8" standalone="no"?>
<!DOCTYPE svg PUBLIC "-//W3C//DTD SVG 1.1//EN"
 "http://www.w3.org/Graphics/SVG/1.1/DTD/svg11.dtd">
<!-- Generated by graphviz version 2.43.0 (0)
 -->
<!-- Title: ERD Pages: 1 -->
<svg width="473pt" height="754pt"
 viewBox="0.00 0.00 473.00 754.00" xmlns="http://www.w3.org/2000/svg" xmlns:xlink="http://www.w3.org/1999/xlink">
<g id="graph0" class="graph" transform="scale(1 1) rotate(0) translate(4 750)">
<title>ERD</title>
<polygon fill="white" stroke="transparent" points="-4,4 -4,-750 469,-750 469,4 -4,4"/>
<!-- USERS -->
<g id="node1" class="node">
<title>USERS</title>
<polygon fill="white" stroke="transparent" points="116.5,-626 116.5,-742 202.5,-742 202.5,-626 116.5,-626"/>
<polygon fill="#e6f1fb" stroke="transparent" points="117.5,-722 117.5,-741 201.5,-741 201.5,-722 117.5,-722"/>
<text text-anchor="start" x="133.5" y="-728.8" font-family="Helvetica,sans-Serif" font-weight="bold" font-size="14.00">USERS</text>
<text text-anchor="start" x="119.5" y="-708.8" font-family="Helvetica,sans-Serif" font-size="14.00">UserID (PK)</text>
<text text-anchor="start" x="119.5" y="-689.8" font-family="Helvetica,sans-Serif" font-size="14.00">Name</text>
<text text-anchor="start" x="119.5" y="-670.8" font-family="Helvetica,sans-Serif" font-size="14.00">Email</text>
<text text-anchor="start" x="119.5" y="-651.8" font-family="Helvetica,sans-Serif" font-size="14.00">Password</text>
<text text-anchor="start" x="119.5" y="-632.8" font-family="Helvetica,sans-Serif" font-size="14.00">Role</text>
<polygon fill="none" stroke="#185fa5" points="116.5,-626 116.5,-742 202.5,-742 202.5,-626 116.5,-626"/>
</g>
<!-- APPLICANT_DETAILS -->
<g id="node2" class="node">
<title>APPLICANT_DETAILS</title>
<polygon fill="white" stroke="transparent" points="76.5,-387 76.5,-541 242.5,-541 242.5,-387 76.5,-387"/>
<polygon fill="#e1f5ee" stroke="transparent" points="77.5,-521 77.5,-540 241.5,-540 241.5,-521 77.5,-521"/>
<text text-anchor="start" x="79.5" y="-527.8" font-family="Helvetica,sans-Serif" font-weight="bold" font-size="14.00">APPLICANT_DETAILS</text>
<text text-anchor="start" x="79.5" y="-507.8" font-family="Helvetica,sans-Serif" font-size="14.00">ApplicantID (PK)</text>
<text text-anchor="start" x="79.5" y="-488.8" font-family="Helvetica,sans-Serif" font-size="14.00">UserID (FK)</text>
<text text-anchor="start" x="79.5" y="-469.8" font-family="Helvetica,sans-Serif" font-size="14.00">IncomeType</text>
<text text-anchor="start" x="79.5" y="-450.8" font-family="Helvetica,sans-Serif" font-size="14.00">EducationType</text>
<text text-anchor="start" x="79.5" y="-431.8" font-family="Helvetica,sans-Serif" font-size="14.00">FamilyStatus</text>
<text text-anchor="start" x="79.5" y="-412.8" font-family="Helvetica,sans-Serif" font-size="14.00">HousingType</text>
<text text-anchor="start" x="79.5" y="-393.8" font-family="Helvetica,sans-Serif" font-size="14.00">EmploymentDays</text>
<polygon fill="none" stroke="#0f6e56" points="76.5,-387 76.5,-541 242.5,-541 242.5,-387 76.5,-387"/>
</g>
<!-- USERS&#45;&gt;APPLICANT_DETAILS -->
<g id="edge1" class="edge">
<title>USERS&#45;&gt;APPLICANT_DETAILS</title>
<path fill="none" stroke="#5f5e5a" stroke-width="1.1" d="M159.5,-621.98C159.5,-598.18 159.5,-570.56 159.5,-545.18"/>
<text text-anchor="middle" x="196.5" y="-581" font-family="Helvetica,sans-Serif" font-size="10.00">1 : N &#160;manages</text>
</g>
<!-- CREDIT_HISTORY -->
<g id="node3" class="node">
<title>CREDIT_HISTORY</title>
<polygon fill="white" stroke="transparent" points="8,-205 8,-302 147,-302 147,-205 8,-205"/>
<polygon fill="#faece7" stroke="transparent" points="9.5,-281.5 9.5,-300.5 146.5,-300.5 146.5,-281.5 9.5,-281.5"/>
<text text-anchor="start" x="11.5" y="-288.3" font-family="Helvetica,sans-Serif" font-weight="bold" font-size="14.00">CREDIT_HISTORY</text>
<text text-anchor="start" x="11.5" y="-268.3" font-family="Helvetica,sans-Serif" font-size="14.00">HistoryID (PK)</text>
<text text-anchor="start" x="11.5" y="-249.3" font-family="Helvetica,sans-Serif" font-size="14.00">ApplicantID (FK)</text>
<text text-anchor="start" x="11.5" y="-230.3" font-family="Helvetica,sans-Serif" font-size="14.00">PaymentStatus</text>
<text text-anchor="start" x="11.5" y="-211.3" font-family="Helvetica,sans-Serif" font-size="14.00">OverdueDays</text>
<polygon fill="none" stroke="#993c1d" points="8,-205 8,-302 147,-302 147,-205 8,-205"/>
</g>
<!-- APPLICANT_DETAILS&#45;&gt;CREDIT_HISTORY -->
<g id="edge2" class="edge">
<title>APPLICANT_DETAILS&#45;&gt;CREDIT_HISTORY</title>
<path fill="none" stroke="#5f5e5a" stroke-width="1.1" d="M128.03,-382.98C117.91,-357.26 106.98,-329.45 97.88,-306.31"/>
<text text-anchor="middle" x="137.5" y="-342" font-family="Helvetica,sans-Serif" font-size="10.00">1 : N &#160;has</text>
</g>
<!-- APPROVAL_PREDICTION -->
<g id="node5" class="node">
<title>APPROVAL_PREDICTION</title>
<polygon fill="white" stroke="transparent" points="145,-4 145,-120 338,-120 338,-4 145,-4"/>
<polygon fill="#fbeaf0" stroke="transparent" points="146.5,-100 146.5,-119 337.5,-119 337.5,-100 146.5,-100"/>
<text text-anchor="start" x="148.5" y="-106.8" font-family="Helvetica,sans-Serif" font-weight="bold" font-size="14.00">APPROVAL_PREDICTION</text>
<text text-anchor="start" x="148.5" y="-86.8" font-family="Helvetica,sans-Serif" font-size="14.00">PredictionID (PK)</text>
<text text-anchor="start" x="148.5" y="-67.8" font-family="Helvetica,sans-Serif" font-size="14.00">ApplicantID (FK)</text>
<text text-anchor="start" x="148.5" y="-48.8" font-family="Helvetica,sans-Serif" font-size="14.00">ModelID (FK)</text>
<text text-anchor="start" x="148.5" y="-29.8" font-family="Helvetica,sans-Serif" font-size="14.00">PredictionResult</text>
<text text-anchor="start" x="148.5" y="-10.8" font-family="Helvetica,sans-Serif" font-size="14.00">PredictionDate</text>
<polygon fill="none" stroke="#993556" points="145,-4 145,-120 338,-120 338,-4 145,-4"/>
</g>
<!-- APPLICANT_DETAILS&#45;&gt;APPROVAL_PREDICTION -->
<g id="edge3" class="edge">
<title>APPLICANT_DETAILS&#45;&gt;APPROVAL_PREDICTION</title>
<path fill="none" stroke="#5f5e5a" stroke-width="1.1" d="M176,-382.54C191.64,-306.22 214.8,-193.24 228.98,-124.07"/>
<text text-anchor="middle" x="248" y="-251" font-family="Helvetica,sans-Serif" font-size="10.00">1 : 1 &#160;receives</text>
</g>
<!-- CREDIT_HISTORY&#45;&gt;APPROVAL_PREDICTION -->
<g id="edge5" class="edge">
<title>CREDIT_HISTORY&#45;&gt;APPROVAL_PREDICTION</title>
<path fill="none" stroke="#5f5e5a" stroke-width="1.1" stroke-dasharray="5,2" d="M122.31,-200.72C142.8,-177.05 167.21,-148.84 188.59,-124.13"/>
<text text-anchor="middle" x="178.5" y="-160" font-family="Helvetica,sans-Serif" font-size="10.00">informs</text>
</g>
<!-- ML_MODEL -->
<g id="node4" class="node">
<title>ML_MODEL</title>
<polygon fill="white" stroke="transparent" points="362,-205 362,-302 457,-302 457,-205 362,-205"/>
<polygon fill="#eeedfe" stroke="transparent" points="363.5,-281.5 363.5,-300.5 456.5,-300.5 456.5,-281.5 363.5,-281.5"/>
<text text-anchor="start" x="366.5" y="-288.3" font-family="Helvetica,sans-Serif" font-weight="bold" font-size="14.00">ML_MODEL</text>
<text text-anchor="start" x="365.5" y="-268.3" font-family="Helvetica,sans-Serif" font-size="14.00">ModelID (PK)</text>
<text text-anchor="start" x="365.5" y="-249.3" font-family="Helvetica,sans-Serif" font-size="14.00">ModelName</text>
<text text-anchor="start" x="365.5" y="-230.3" font-family="Helvetica,sans-Serif" font-size="14.00">Version</text>
<text text-anchor="start" x="365.5" y="-211.3" font-family="Helvetica,sans-Serif" font-size="14.00">Accuracy</text>
<polygon fill="none" stroke="#534ab7" points="362,-205 362,-302 457,-302 457,-205 362,-205"/>
</g>
<!-- ML_MODEL&#45;&gt;APPROVAL_PREDICTION -->
<g id="edge4" class="edge">
<title>ML_MODEL&#45;&gt;APPROVAL_PREDICTION</title>
<path fill="none" stroke="#5f5e5a" stroke-width="1.1" d="M363.59,-200.72C342.61,-177.05 317.6,-148.84 295.7,-124.13"/>
<text text-anchor="middle" x="369.5" y="-160" font-family="Helvetica,sans-Serif" font-size="10.00">1 : N &#160;generates</text>
</g>
</g>
</svg>
